HIERARCHY
ROOT Hips
{
	OFFSET -0.179506 -22.333345 2.821913
	CHANNELS 6 Xposition Yposition Zposition Zrotation Yrotation Xrotation 
	JOINT LeftUpLeg
	{
		OFFSET 6.951974 -9.140623 -0.681533
		CHANNELS 3 Zrotation Yrotation Xrotation
		JOINT LeftLeg
		{
			OFFSET 3.427654 -37.519855 -0.449580
			CHANNELS 3 Zrotation Yrotation Xrotation
			JOINT LeftFoot
			{
				OFFSET -1.359570 -39.796059 -4.369333
				CHANNELS 3 Zrotation Yrotation Xrotation
				JOINT LeftToe
				{
					OFFSET 2.635814 -5.579078 11.928840
					CHANNELS 3 Zrotation Yrotation Xrotation
					End Site
					{
						OFFSET 0.000000 0.000000 0.000000
					}
				}
			}
		}
	}
	JOINT RightUpLeg
	{
		OFFSET -6.767048 -9.052170 -0.431982
		CHANNELS 3 Zrotation Yrotation Xrotation
		JOINT RightLeg
		{
			OFFSET -3.829005 -38.256897 -0.885003
			CHANNELS 3 Zrotation Yrotation Xrotation
			JOINT RightFoot
			{
				OFFSET 1.577377 -39.841461 -4.231180
				CHANNELS 3 Zrotation Yrotation Xrotation
				JOINT RightToe
				{
					OFFSET -2.537174 -4.814398 12.334795
					CHANNELS 3 Zrotation Yrotation Xrotation
					End Site
					{
						OFFSET 0.000000 0.000000 0.000000
					}
				}
			}
		}
	}
	JOINT Spine
	{
		OFFSET -0.253288 10.896323 -2.669631
		CHANNELS 3 Zrotation Yrotation Xrotation
		JOINT Spine1
		{
			OFFSET 0.548704 13.518043 0.109247
			CHANNELS 3 Zrotation Yrotation Xrotation
			JOINT Spine2
			{
				OFFSET 0.145701 5.292222 2.542457
				CHANNELS 3 Zrotation Yrotation Xrotation
				JOINT Neck
				{
					OFFSET -0.277840 21.387037 -4.285703
					CHANNELS 3 Zrotation Yrotation Xrotation
					JOINT Head
					{
						OFFSET 0.515184 6.496960 5.134897
						CHANNELS 3 Zrotation Yrotation Xrotation
						End Site
						{
							OFFSET 0.000000 0.000000 0.000000
						}
					}
				}
				JOINT LeftShoulder
				{
					OFFSET 7.884473 12.174932 -3.408961
					CHANNELS 3 Zrotation Yrotation Xrotation
					JOINT LeftArm
					{
						OFFSET 9.097692 3.046888 -0.886815
						CHANNELS 3 Zrotation Yrotation Xrotation
						JOINT LeftForeArm
						{
							OFFSET 25.961220 -1.277207 -2.745643
							CHANNELS 3 Zrotation Yrotation Xrotation
							JOINT LeftHand
							{
								OFFSET 24.923361 0.898606 -0.117091
								CHANNELS 3 Zrotation Yrotation Xrotation
								End Site
								{
									OFFSET 0.000000 0.000000 0.000000
								}
							}
						}
					}
				}
				JOINT RightShoulder
				{
					OFFSET -8.175920 11.883285 -3.861528
					CHANNELS 3 Zrotation Yrotation Xrotation
					JOINT RightArm
					{
						OFFSET -9.601238 3.255117 -0.914307
						CHANNELS 3 Zrotation Yrotation Xrotation
						JOINT RightForeArm
						{
							OFFSET -25.374195 -1.332924 -2.140099
							CHANNELS 3 Zrotation Yrotation Xrotation
							JOINT RightHand
							{
								OFFSET -25.529810 0.777228 -0.555919
								CHANNELS 3 Zrotation Yrotation Xrotation
								End Site
								{
									OFFSET 0.000000 0.000000 0.000000
								}
							}
						}
					}
				}
			}
		}
	}
}
MOTION
Frames: 13
Frame Time: 0.033333
-15.220763 -39.608826 88.338501 -129.561573 7.763985 79.415667 20.171378 5.937459 -0.794610 -8.730558 -1.581004 38.791823 1.591854 13.853116 -36.267630 nan nan nan -12.907244 -8.643670 -14.883710 1.873195 -8.267668 28.709814 4.500768 -6.866599 -8.188358 nan nan nan -9.377796 1.646777 5.286560 6.609829 -7.334771 11.729176 1.393034 -0.764100 -8.639804 1.272681 -7.992448 20.064296 5.802610 -7.944675 26.775907 -0.580183 -27.559694 -0.058137 -41.178078 -67.955330 17.126533 125.952970 -78.435045 -95.973703 -2.083572 -14.641319 -0.431814 2.931706 17.595390 -5.369487 13.354709 28.770020 -8.733368 -116.520456 69.689924 -81.519182 -0.076086 10.055592 12.700414 
-15.133297 -39.450115 88.304794 -129.395727 7.800323 79.508004 20.341566 5.788188 -0.848692 -8.711113 -1.484414 38.702783 1.723626 13.711137 -36.177623 nan nan nan -12.941264 -8.483938 -14.951197 1.795928 -8.271386 28.429363 4.318733 -6.578927 -8.326956 nan nan nan -9.345371 1.659634 5.167308 6.612226 -7.211416 12.100484 1.342874 -0.871056 -8.754254 1.198046 -8.211216 19.721956 5.810919 -8.144194 27.090973 -1.583704 -26.577124 0.349541 -43.819878 -67.441549 19.819004 129.291068 -78.211443 -100.618890 -3.306161 -13.395146 0.259573 3.506865 16.973737 -4.993145 14.467437 28.620393 -7.811917 -118.784470 69.132859 -86.874553 2.583068 7.879960 8.784910 
-15.065207 -39.287857 88.261490 -129.186957 7.782752 79.667657 20.425002 5.792177 -1.026921 -8.608660 -1.466017 38.687604 1.673437 13.468057 -36.147073 nan nan nan -13.064405 -8.461701 -15.104946 1.745484 -8.200500 28.152202 4.341380 -6.247881 -8.464331 nan nan nan -9.326219 1.697154 4.847139 6.600039 -7.221524 12.645261 1.293299 -0.982162 -8.923146 1.091661 -8.241752 19.644980 5.903261 -8.427625 26.837177 -2.804489 -25.891221 0.658601 -44.879346 -66.607116 21.145565 131.727698 -78.133438 -103.977079 -4.234497 -13.558946 0.351841 4.344327 16.795071 -4.530336 14.970629 28.168100 -7.431173 -117.392539 69.052292 -86.339699 3.328309 8.143974 8.350510 
-15.015035 -39.104530 88.236107 -128.934464 7.771186 79.762498 20.500385 5.734684 -1.121989 -8.529863 -1.513757 38.633551 1.652033 13.342611 -36.129314 nan nan nan -13.233800 -8.474278 -15.091258 1.798072 -8.037294 27.733789 4.280509 -6.018174 -8.539212 nan nan nan -9.376464 1.820414 4.718220 6.639208 -7.195853 13.020428 1.310046 -1.063682 -9.108566 1.080545 -8.365097 19.535338 6.045353 -8.767510 26.666669 -3.949593 -25.352353 0.997061 -45.569396 -65.955123 21.951191 134.104061 -78.302178 -106.636713 -5.460688 -14.303056 -0.079538 5.153586 16.485229 -4.274442 15.660473 27.565733 -6.918547 -115.794036 68.959310 -85.526402 4.256720 8.625749 7.412869 
-14.973133 -38.906376 88.225067 -128.712835 7.757198 79.776955 20.570898 5.686382 -1.082894 -8.481917 -1.677965 38.520153 1.611557 13.258125 -36.142223 nan nan nan -13.389524 -8.490013 -14.955869 1.807990 -7.860939 27.169206 4.133455 -5.849466 -8.473116 nan nan nan -9.454259 1.966435 4.780833 6.732057 -7.085414 13.175172 1.321793 -1.075361 -9.204258 1.071374 -8.659251 19.415215 6.215967 -9.033604 26.488928 -5.140259 -24.658507 1.512893 -46.401191 -65.490803 22.921193 136.696371 -78.567818 -109.342774 -6.200405 -14.750537 -0.383721 6.125621 15.936711 -3.904004 16.139856 27.059850 -6.572910 -114.616563 68.896747 -85.096249 4.576986 8.858949 6.372423 
-14.930207 -38.712543 88.212578 -128.576668 7.705179 79.743595 20.601524 5.711188 -0.960303 -8.378256 -1.809443 38.414261 1.522933 13.100669 -36.179873 nan nan nan -13.594037 -8.457428 -14.810102 1.765629 -7.793360 26.533485 4.259770 -5.732447 -8.330075 nan nan nan -9.552744 2.101534 4.822743 6.797880 -6.912883 13.445798 1.319699 -1.038121 -9.288921 1.187196 -8.970067 19.151067 6.305813 -9.325173 26.302294 -6.264010 -24.047997 1.952894 -47.056355 -64.867072 23.867245 138.262101 -78.802375 -111.029158 -6.275911 -15.514997 -0.794364 7.156707 15.468976 -3.522928 16.473685 26.459519 -6.292143 -113.324587 68.700752 -84.341977 3.883845 9.215455 5.677309 
-14.856383 -38.518234 88.185478 -128.501892 7.645667 79.726836 20.645589 5.757002 -0.864663 -8.307372 -1.910741 38.354063 1.429092 12.988159 -36.153106 nan nan nan -13.784795 -8.420599 -14.748961 1.725212 -7.702614 25.902611 4.379526 -5.642069 -8.227358 nan nan nan -9.643197 2.227012 4.810418 6.844639 -6.761419 13.977895 1.298428 -0.936255 -9.602919 1.404916 -9.288210 18.788796 6.205043 -9.656552 26.284289 -7.260596 -23.457499 2.288926 -47.469647 -64.128046 24.620130 139.927761 -78.943757 -112.900071 -6.266409 -16.338380 -1.149590 8.105924 15.098604 -3.210296 16.776567 25.766315 -5.902347 -111.573433 68.452350 -83.126179 3.348905 9.678063 5.206484 
-14.773138 -38.310505 88.147980 -128.439968 7.607517 79.788296 20.718374 5.777623 -0.887079 -8.287877 -1.979043 38.339248 1.327715 12.972874 -36.149360 nan nan nan -13.959613 -8.406718 -14.800411 1.751851 -7.584019 25.262804 4.172147 -5.486143 -8.095131 nan nan nan -9.677164 2.370782 4.657052 6.906413 -6.634368 14.517346 1.262618 -0.841731 -9.877516 1.539253 -9.549501 18.572463 6.181839 -9.969980 26.167371 -8.253477 -22.776940 2.647911 -47.749578 -63.408429 25.210723 142.653861 -78.948628 -115.908256 -6.640254 -16.385826 -1.104801 9.015516 14.723469 -2.914789 16.988145 25.111994 -5.512637 -109.752551 68.271976 -81.946516 3.400862 9.926496 4.843687 
-14.697672 -38.076405 88.107208 -128.369285 7.561956 79.868606 20.804853 5.864765 -0.935386 -8.225192 -2.037282 38.324663 1.230974 12.929671 -36.148808 nan nan nan -14.142264 -8.400851 -14.833811 1.761325 -7.466149 24.529829 4.020622 -5.321683 -7.824720 nan nan nan -9.728683 2.519974 4.428956 6.974945 -6.460893 14.999963 1.240173 -0.819170 -9.969272 1.687825 -9.820380 18.324352 6.176723 -10.264953 25.974765 -9.226854 -22.067915 3.082658 -48.045981 -62.741405 25.768588 145.452587 -78.887560 -119.034468 -7.095628 -16.263705 -0.937948 9.908833 14.222485 -2.509796 17.119578 24.587994 -5.249114 -107.902917 68.029016 -80.640390 3.244253 10.007336 4.473103 
-14.621595 -37.831669 88.065880 -128.278557 7.513111 79.968017 20.896820 5.918669 -0.999905 -8.192969 -2.125225 38.281577 1.185113 12.937682 -36.140089 nan nan nan -14.332912 -8.405343 -14.881327 1.800338 -7.290787 23.766592 4.052425 -5.354423 -7.512713 nan nan nan -9.767506 2.674361 4.356225 7.012946 -6.261228 15.107411 1.198935 -0.781678 -9.887793 1.825441 -10.219129 18.022603 6.269730 -10.434294 25.909682 -10.133947 -21.478694 3.386708 -48.073975 -61.959892 26.150063 148.413314 -79.005285 -122.205951 -6.855779 -16.467334 -1.238535 10.825554 13.588824 -2.313519 17.320257 23.982247 -4.975300 -106.292239 68.047976 -79.443327 2.550057 9.895967 4.259833 
-14.538897 -37.588493 87.988808 -128.184396 7.525124 80.048068 21.083341 5.983838 -1.117621 -8.132189 -2.185718 38.382877 1.119053 12.839532 -36.149712 nan nan nan -14.480355 -8.452401 -14.946178 1.794365 -7.201117 23.071384 4.002241 -5.236820 -7.380801 nan nan nan -9.717315 2.780142 4.007529 7.102467 -6.216781 15.581610 1.221147 -0.795636 -9.750624 1.825328 -10.200353 17.969686 6.355437 -10.719412 25.174252 -11.032812 -20.850738 3.431270 -47.856443 -60.986653 26.136819 151.075894 -78.950259 -125.287119 -7.053641 -16.638631 -1.045078 11.443738 13.393995 -2.088741 17.458548 23.395100 -4.982348 -104.598328 68.100601 -78.353429 2.475722 9.653353 4.388111 
-14.483353 -37.336567 87.915825 -128.133750 7.485849 80.100994 21.217818 6.003407 -1.109581 -8.129767 -2.233181 38.358115 1.019800 12.756165 -36.150239 nan nan nan -14.681595 -8.464628 -14.982728 1.750017 -7.144534 22.304920 3.720136 -5.087511 -7.164655 nan nan nan -9.717521 2.914952 3.744320 7.172020 -6.119697 16.402190 1.195208 -0.746719 -10.078781 2.087985 -10.355988 17.651544 6.359665 -11.118515 24.739471 -11.769323 -20.167639 3.491368 -48.367598 -60.142116 26.686599 152.481354 -78.904614 -126.934654 -7.703812 -16.806348 -0.667487 12.111707 13.024900 -1.980135 17.694217 22.873933 -4.819148 -102.973292 67.983985 -77.431763 3.070059 9.511570 4.439418 
-14.457490 -37.073505 87.871353 -128.018576 7.434223 80.151964 21.291817 6.017033 -1.050762 -8.107806 -2.396502 38.277465 0.883004 12.661995 -36.199006 nan nan nan -14.925043 -8.522169 -14.882912 1.712470 -7.036598 21.388207 3.648621 -5.075657 -6.865471 nan nan nan -9.667256 2.922559 4.080412 7.142111 -5.940071 15.984246 1.099638 -0.515673 -9.982798 2.242961 -10.933791 17.371140 6.381500 -11.324428 24.984840 -12.394977 -19.434944 3.807278 -48.900898 -59.452439 27.267100 154.397656 -79.034521 -128.874137 -7.895993 -17.029060 -0.703273 12.975748 12.315499 -1.777289 17.904796 22.351204 -4.719475 -101.421781 67.981556 -76.569188 3.608911 9.679751 4.317206 
